<?xml version="1.0" encoding="UTF-8"?>
<svg id="Layer_1" xmlns="http://www.w3.org/2000/svg" version="1.1" viewBox="0 0 841.89 442.67">
  <!-- Generator: Adobe Illustrator 29.1.0, SVG Export Plug-In . SVG Version: 2.1.0 Build 142)  -->
  <defs>
    <style>
      .st0 {
        fill: #33164f;
      }
    </style>
  </defs>
  <polygon class="st0" points="340.33 113.01 340.33 119.44 16.91 119.44 16.91 315.03 17.65 315.77 230.05 315.77 230.05 322.2 10.48 322.2 10.48 113.01 340.33 113.01"/>
  <polygon class="st0" points="828.44 113.01 828.44 322.2 630.13 322.2 630.13 315.77 822.01 315.77 822.01 119.44 507.49 119.44 507.49 113.01 828.44 113.01"/>
  <path class="st0" d="M445.18,99.16l10.88-14.83h-35.61s24.22,14.87,24.22,14.87l-24.22,58.32-23.65-57.71,23.15-14.98-34.61-.5,10.88,14.83-28.68-.48,33.63,45.49-48.73-48.96c9.39-5.86,17.82-13.26,27.74-18.26l82.17.35,26.83,18.16-49.19,49.21,33.38-45.5h-28.19Z"/>
  <path class="st0" d="M371,155.04l6.33.1,70.82,104.74v-103.36h5.93v114.24l-6.33-.1-70.82-104.74v103.11c-1.44,1.45-4.03.49-5.93.74v-114.73Z"/>
  <path class="st0" d="M757.48,156.53c36.76,3.24,45.53,50.22,10.51,62.44l-10.26,2.34c3.11,1.1,6.23,3.73,8.39,6.2,8.19,9.4,14.05,23.49,22,33.38,2.62,2.71,4.59,2.18,7.96,2.92l.14,5.15-1.04.72c-5.63-.39-9.1-1.79-12.65-6.17-9.85-12.16-20.05-41.21-37.92-41.21h-25.96v47.48h-5.93v-113.25h44.76ZM718.66,216.37c19.99-1.52,52.14,6.49,62.9-15.98,8.28-17.29-5.68-37.92-24.57-37.92h-38.33v53.9Z"/>
  <path class="st0" d="M639.43,155.19c43.86-3.62,73.88,42.13,56.56,81.78-18.82,43.11-78.97,45.91-101.23,4.13-19.07-35.8,3.38-82.5,44.67-85.91ZM639.43,161.13c-32.94,2.94-53.25,38.13-42.94,68.86,15.18,45.26,77.04,46.88,94.71,2.69,14.15-35.39-13.24-74.99-51.77-71.55Z"/>
  <path class="st0" d="M517.28,155.19c46.41-3.94,76.69,46.95,54.26,86.9-20.62,36.74-72.36,38.84-95.82,3.81-23.77-35.49-1.82-87.03,41.55-90.71ZM517.77,161.13c-35.27,3.15-55.16,41.45-41.37,73.22,19.15,44.11,81.26,39.22,94.63-6.61,9.99-34.26-17.12-69.84-53.26-66.61Z"/>
  <path class="st0" d="M172.59,155.19c42.71-3.79,73.13,39.86,57.97,79.24-15.92,41.36-70.86,49.8-97.64,14.04-26.41-35.26-5-89.31,39.67-93.28ZM173.08,161.13c-34.95,3.12-54.92,41.22-41.53,72.89,16.4,38.81,69.81,41.77,90.18,4.94,19.86-35.9-7.05-81.54-48.65-77.83Z"/>
  <path class="st0" d="M416.49,67.02c.8-.69-3.88-4.32-4.71-4.44l-24.92-.06c-2.8-13.45-11.83-24.19-21.31-33.57,3.64.31,7.42,2.25,10.54,4.05,1.54.89,5.02,3.94,6.15,4.23,3,.78,7.39-.68,10.51-.86-6.88,6.18-4.99,19.03,5.62,18.24,2.1-.16,8.45-2.03,10.47-2.89,6.42-2.74,7.53-13.25.72-16.09-2.3-.96-5.24-.56-6.92-2.22l11.9-1.21c1.27-4.6,2.68-9.66,6.64-12.64l5.76,12.79,11.31,1.06v1.48c-11.13-2.59-16.21,12.34-5.78,16.91,2.32,1.02,10.66,3.2,12.92,2.85,1.93-.3,6.67-4.37,7.1-6.26,1.22-5.43-.83-7.91-4.35-11.51,3.31-.64,7.95,1.31,11.03.39.65-.19,5.53-4.2,7.26-5.1,3.13-1.64,6.49-2.77,9.9-3.69-10.37,9.13-18.78,20.48-22.32,34.05-1.05.68-20.29-.4-23.87.11-.9.13-1.77.4-2.52.94l-3.21,3.47h29.67c-1.01,1.31-.93,4.12-2.72,4.45-13.04.14-26.05.72-39.09.52-1.41-.02-2.61-.51-3.91-.54-6.84-.14-13.71.14-20.55.02l-.49-4.45h29.18ZM421.43,66.02l7.89-10.07c-1-.98-2.35-3.01-3.69-3.27s-10.19-.17-11.11.25c-.49.22-3.03,2.86-2.94,3.38,3.01,2.36,5.61,7.18,8.61,9.23.41.28.51.68,1.24.48Z"/>
  <path class="st0" d="M252.31,156.53v53.41h71.21v-53.41h5.93v113.25c-1.91-.26-4.5.71-5.93-.74v-53.16h-71.21v53.16c-1.44,1.45-4.03.49-5.93.74v-113.25h5.93Z"/>
  <path class="st0" d="M44.11,232.69l67.01-77.63c.6,1.25,4.76,2.93,3.99,4.44l-43.2,51.11.89,1.56c13.72,14.55,25.64,31.79,39.31,46.25,2.95,3.12,4.92,5.36,9.66,5.22v6.14c-3.91-.53-7.37-.87-10.4-3.7l-43.78-50.69-23.48,26.94v27.45c-1.91-.26-4.5.71-5.93-.74v-112.51h5.93v76.16Z"/>
  <path class="st0" d="M353.19,156.53v113.25c-1.91-.26-4.5.71-5.93-.74v-112.51h5.93Z"/>
  <path class="st0" d="M487.95,290.55c14.36,1.46,24.08,16.3,15,28.85-3.97,5.49-7.14,5.24-12.97,6.81-.57.15-1.19.18-1.28.94,1.41.47,2.94,1.67,3.95,2.73,3.36,3.54,11.17,19.24,14.32,20.3.82.27,1.66.23,2.5.22v3.46c-.28.28-3.3-.49-3.95-.75-5.8-2.29-11.67-18.91-18.06-23.48-1.67-1.19-5.96-2.48-7.91-2.48h-13.11v26.71h-3.46v-63.3c8,.59,17.11-.8,24.97,0ZM466.44,324.18h19.53c12.99,0,22.67-13.81,13.36-24.73-1.93-2.26-7.48-5.43-10.39-5.43h-22.5v30.17Z"/>
  <path class="st0" d="M590.82,290.55c19.38,1.96,25.08,26.73,8.77,33.99-2.67,1.19-5.57,1.16-8.02,2.36,1.88,1.38,3.67,2.93,5.14,4.74,2.81,3.46,10.02,17.49,13.12,18.53.82.27,1.66.23,2.5.22v3.46c-2.34-.09-5.01-.76-6.69-2.45-5.35-5.39-10.62-20.79-17.92-23.12-.95-.3-4.55-1.13-5.3-1.13h-13.11v26.71h-3.46v-63.3c8,.59,17.11-.8,24.97,0ZM569.31,324.18h19.53c1.36,0,5.49-.96,6.94-1.47,11.86-4.17,13.74-20.7,2.23-26.49-.9-.45-5.55-2.21-6.2-2.21h-22.5v30.17Z"/>
  <path class="st0" d="M336.81,290.12l24.78,63.22-2.95,1.01-7.26-17.23-32.32.16-6.93,17.07-2.95-1.01,24.66-62.98,2.95-.24ZM320.55,334.07h29.67l-15.08-37.59-14.59,37.59Z"/>
  <polygon class="st0" points="453.09 290.55 453.09 294.01 416.49 294.01 416.49 319.97 417.23 320.71 439.74 320.71 439.74 323.68 417.23 323.68 416.49 324.42 416.49 350.39 456.55 350.39 456.55 353.85 413.53 353.85 413.53 290.55 453.09 290.55"/>
  <polygon class="st0" points="555.95 290.55 555.95 294.01 519.36 294.01 519.36 320.71 542.6 320.71 542.6 323.68 520.1 323.68 519.36 324.42 519.36 350.39 559.41 350.39 559.41 353.85 516.39 353.85 516.39 290.55 555.95 290.55"/>
  <path class="st0" d="M280.39,290.19c9.29-1.11,18.53,1.07,25.77,7.03l-2.08,2.18c-21.7-16.34-50.61,1.06-46.24,27.91,2.98,18.35,21.64,28.76,38.98,21.83,2.08-.83,5.67-3.67,6.91-4,1.52-.41,1.45,1.21,2.48,2.04-24.01,18.01-54.61,1-51.91-29.17,1.17-13.12,12.81-26.22,26.09-27.81Z"/>
  <path class="st0" d="M180.85,372.64c11.62,1.65,16.81,17.54,7.18,24.99-2.88,2.23-4.78,2.02-7.93,2.96-.47.14-1.13.09-.98.73,5.96,1.79,9.92,15.8,14.47,17.93.74.35,1.53.36,2.32.39l.02,2.45c-.87.02-1.75.08-2.61-.12-6.56-1.49-10.7-20.66-19.9-20.66h-11.62v20.77h-2.97v-49.45c6.81.69,15.43-.93,22.01,0ZM161.81,398.85h16.57c.48,0,4.33-1.1,5.04-1.38,8.94-3.54,9.54-16.3.8-20.78-.66-.34-3.92-1.57-4.36-1.57h-18.05v23.74Z"/>
  <polygon class="st0" points="55.97 418.14 55.97 372.64 58.45 372.64 58.45 423.08 55.46 422.36 24.32 376.6 24.32 422.09 21.85 422.09 21.85 371.65 24.84 372.38 55.97 418.14"/>
  <path class="st0" d="M577.71,422.09v-49.45h21.51c1.26,0,6.43,2.29,7.82,3.06,16.92,9.42,16.41,35.18-.98,43.83-1.19.59-6.35,2.56-7.33,2.56h-21.02ZM580.19,419.62h17.56c1.63,0,6.73-2.13,8.31-3.07,16.14-9.58,13.71-34.24-3.97-40.34-.65-.23-3.47-1.1-3.85-1.1h-18.05v44.51Z"/>
  <path class="st0" d="M816.33,372.64c11.86,1.68,16.86,17.89,6.92,25.22-2.69,1.99-4.76,1.86-7.67,2.73-.47.14-1.13.09-.98.73,6.33,2.06,9.65,15.67,14.83,18.08.57.26,1.34.17,1.96.25l.02,2.45c-.87.02-1.75.08-2.61-.12-5.45-1.24-9.81-15.97-15.84-19.28-.71-.39-3.45-1.38-4.06-1.38h-11.62v20.77h-2.47v-49.45c6.65.68,15.08-.91,21.51,0ZM797.29,398.85h16.57c9.47,0,15.9-11.34,9.63-19.03-1.52-1.86-5.81-4.71-8.15-4.71h-18.05v23.74Z"/>
  <path class="st0" d="M353.44,372.64c11.89,1.69,16.89,17.88,6.92,25.22-2.78,2.05-4.67,1.92-7.68,2.71-.46.12-1.11.13-.97.74,1.53.15,2.49,1.17,3.45,2.24,3.12,3.5,7.84,14.19,11.38,15.84.57.26,1.34.17,1.96.25l.02,2.45c-1.82.19-3.81-.22-5.2-1.48-5.04-4.56-8.97-19.29-17.3-19.29h-11.62v20.77h-2.47v-49.45c6.65.68,15.08-.91,21.51,0ZM334.4,398.85h16.57c.69,0,3.82-.91,4.69-1.24,8.92-3.4,10.21-15.72,1.84-20.62-.71-.42-4.5-1.88-5.05-1.88h-18.05v23.74Z"/>
  <polygon class="st0" points="406.6 290.55 406.6 294.01 383.36 294.01 383.36 353.85 380.39 353.85 380.39 294.01 357.15 294.01 357.15 290.55 406.6 290.55"/>
  <path class="st0" d="M405.12,372.64v2.47h-28.68v20.77h17.56c.98,0,.98,2.97,0,2.97h-17.56v20.77h31.16v2.47h-34.12v-49.45h31.65Z"/>
  <path class="st0" d="M522.82,372.64v2.47h-28.68v20.77h17.56c.98,0,.98,2.97,0,2.97h-17.56v20.77h31.16v2.47h-34.12v-49.45h31.65Z"/>
  <path class="st0" d="M430.79,371.7l19.83,50.39-2.44.49-5.8-13.26-25.94.21-4.9,13.06-2.47-.5,19.38-49.6c.35-.99,1.43-.98,2.34-.78ZM417.98,406.76h23.74l-11.63-29.68-12.11,29.68Z"/>
  <path class="st0" d="M110.87,406.27v15.83h-2.47v-49.45h23c2.87,0,8.38,4.41,10.13,6.69,5.91,7.7,3.76,19.64-4.59,24.56-.94.56-4.72,2.38-5.54,2.38h-20.52ZM110.87,403.8h20.03c1,0,4.86-2.28,5.85-3.05,7.97-6.17,6.99-18.44-1.5-23.55-.65-.39-3.95-2.08-4.35-2.08h-20.03v28.68Z"/>
  <path class="st0" d="M81.59,371.8c6.24-.43,13.91,1.5,18.36,6.1l-1.6,1.59c-6.72-6.04-22.8-7.58-28.25.6-3.45,5.18.62,8.9,5.17,11.08,8.9,4.27,33.31,6.74,26.7,22.28-4.81,11.31-24.11,10.86-33.3,5.58-1.44-.82-6.11-3.33-4.07-4.89,1.34-1.02,4.09,1.91,5.69,2.77,5.2,2.77,10.15,3.74,16.07,3.2,6.63-.6,16.39-6.1,13.48-13.96-2.57-6.92-18.35-9.39-24.77-12.32-16.12-7.34-8.08-21.03,6.5-22.03Z"/>
  <path class="st0" d="M786.9,372.64v2.47h-29.18v20.77h18.05c.98,0,.98,2.97,0,2.97h-18.05v20.03l.74.74h30.91v2.47h-34.12v-49.45h31.65Z"/>
  <polygon class="st0" points="232.52 372.64 232.52 375.11 203.35 375.11 203.35 395.88 221.65 395.88 221.65 398.85 203.35 398.85 203.35 419.62 235 419.62 235 422.09 200.87 422.09 200.87 372.64 232.52 372.64"/>
  <polygon class="st0" points="656.34 372.64 655.6 375.11 627.17 375.11 627.17 395.88 645.46 395.88 645.46 398.85 627.17 398.85 627.17 419.62 658.82 419.62 658.82 422.09 624.69 422.09 624.69 372.64 656.34 372.64"/>
  <path class="st0" d="M325.5,377.1l-1.24,2.47c-18.68-14.02-42.57,2.49-35.98,25.1,4.41,15.13,20.92,19.03,33.93,11.9,1.5-.82,2.23-2.95,3.07.58-19.89,15.53-46.57-3.02-39.69-27.31,4.98-17.57,25.51-23.18,39.91-12.75Z"/>
  <path class="st0" d="M712.2,372.15l18.09,45.49,18.3-45.01h2.71s-19.83,50.4-19.83,50.4c-.9.2-1.99.21-2.34-.78l-19.38-49.6,2.44-.49Z"/>
  <polygon class="st0" points="486.22 372.64 486.22 375.11 467.92 375.11 467.92 422.09 464.96 422.09 464.96 375.11 446.66 375.11 446.66 372.64 486.22 372.64"/>
  <polygon class="st0" points="666.73 372.64 666.73 419.62 697.89 419.62 697.89 422.09 663.76 422.09 663.76 372.64 666.73 372.64"/>
  <path class="st0" d="M250.99,390.12c7.02-7,18.22,3.85,10.73,10.97s-17.53-4.19-10.73-10.97Z"/>
  <path class="st0" d="M546.92,388.09c12.38-2.03,11.4,17.7-.27,14.87-8.18-1.98-7.33-13.62.27-14.87Z"/>
  <rect class="st0" x="148.45" y="372.64" width="2.97" height="49.45"/>
  <rect class="st0" x="11.47" y="372.64" width="2.47" height="49.45"/>
  <rect class="st0" x="703.33" y="372.64" width="2.47" height="49.45"/>
</svg>